<?xml version="1.0" encoding="UTF-8"?>
<svg id="Calque_3" data-name="Calque 3" xmlns="http://www.w3.org/2000/svg" viewBox="0 0 232.22 290.28">
  <defs>
    <style>
      .cls-1 {
        fill: #ff7e22;
      }
    </style>
  </defs>
  <path class="cls-1" d="M0,217.71c0-8.13,6.39-14.52,14.52-14.52s14.51,6.39,14.51,14.52-6.39,14.51-14.51,14.51-14.52-6.39-14.52-14.51ZM0,246.74c0-8.13,6.39-14.52,14.52-14.52s14.51,6.39,14.51,14.52-6.39,14.52-14.51,14.52-14.52-6.39-14.52-14.52ZM0,275.76c0-8.13,6.39-14.51,14.52-14.51s14.51,6.39,14.51,14.51-6.39,14.52-14.51,14.52-14.52-6.39-14.52-14.52ZM29.03,130.63c0-8.13,6.39-14.52,14.52-14.52s14.52,6.39,14.52,14.52-6.39,14.51-14.52,14.51-14.52-6.39-14.52-14.51ZM29.03,159.65c0-8.13,6.39-14.52,14.52-14.52s14.52,6.39,14.52,14.52-6.39,14.52-14.52,14.52-14.52-6.39-14.52-14.52ZM29.03,188.68c0-8.13,6.39-14.51,14.52-14.51s14.52,6.39,14.52,14.51-6.39,14.52-14.52,14.52-14.52-6.39-14.52-14.52ZM29.03,217.71c0-8.13,6.39-14.52,14.52-14.52s14.52,6.39,14.52,14.52-6.39,14.51-14.52,14.51-14.52-6.39-14.52-14.51ZM29.03,246.74c0-8.13,6.39-14.52,14.52-14.52s14.52,6.39,14.52,14.52-6.39,14.52-14.52,14.52-14.52-6.39-14.52-14.52ZM29.03,275.76c0-8.13,6.39-14.51,14.52-14.51s14.52,6.39,14.52,14.51-6.39,14.52-14.52,14.52-14.52-6.39-14.52-14.52ZM58.06,72.57c0-8.13,6.39-14.52,14.51-14.52s14.52,6.39,14.52,14.52-6.39,14.52-14.52,14.52-14.51-6.39-14.51-14.52ZM58.06,101.6c0-8.13,6.39-14.51,14.51-14.51s14.52,6.39,14.52,14.51-6.39,14.52-14.52,14.52-14.51-6.39-14.51-14.52ZM58.06,130.63c0-8.13,6.39-14.52,14.51-14.52s14.52,6.39,14.52,14.52-6.39,14.51-14.52,14.51-14.51-6.39-14.51-14.51ZM58.06,159.65c0-8.13,6.39-14.52,14.51-14.52s14.52,6.39,14.52,14.52-6.39,14.52-14.52,14.52-14.51-6.39-14.51-14.52ZM58.06,188.68c0-8.13,6.39-14.51,14.51-14.51s14.52,6.39,14.52,14.51-6.39,14.52-14.52,14.52-14.51-6.39-14.51-14.52ZM58.06,217.71c0-8.13,6.39-14.52,14.51-14.52s14.52,6.39,14.52,14.52-6.39,14.51-14.52,14.51-14.51-6.39-14.51-14.51ZM87.08,14.52c0-8.13,6.39-14.52,14.52-14.52s14.51,6.39,14.51,14.52-6.39,14.51-14.51,14.51-14.52-6.39-14.52-14.51ZM87.08,43.54c0-8.13,6.39-14.52,14.52-14.52s14.51,6.39,14.51,14.52-6.39,14.51-14.51,14.51-14.52-6.38-14.52-14.51ZM87.08,72.57c0-8.13,6.39-14.52,14.52-14.52s14.51,6.39,14.51,14.52-6.39,14.52-14.51,14.52-14.52-6.39-14.52-14.52ZM87.08,101.6c0-8.13,6.39-14.51,14.52-14.51s14.51,6.39,14.51,14.51-6.39,14.52-14.51,14.52-14.52-6.39-14.52-14.52ZM87.08,188.68c0-8.13,6.39-14.51,14.52-14.51s14.51,6.39,14.51,14.51-6.39,14.52-14.51,14.52-14.52-6.39-14.52-14.52ZM87.08,217.71c0-8.13,6.39-14.52,14.52-14.52s14.51,6.39,14.51,14.52-6.39,14.51-14.51,14.51-14.52-6.39-14.52-14.51ZM116.11,14.52c0-8.13,6.39-14.52,14.52-14.52s14.52,6.39,14.52,14.52-6.39,14.51-14.52,14.51-14.52-6.39-14.52-14.51ZM116.11,43.54c0-8.13,6.39-14.52,14.52-14.52s14.52,6.39,14.52,14.52-6.39,14.51-14.52,14.51-14.52-6.38-14.52-14.51ZM116.11,72.57c0-8.13,6.39-14.52,14.52-14.52s14.52,6.39,14.52,14.52-6.39,14.52-14.52,14.52-14.52-6.39-14.52-14.52ZM116.11,101.6c0-8.13,6.39-14.51,14.52-14.51s14.52,6.39,14.52,14.51-6.39,14.52-14.52,14.52-14.52-6.39-14.52-14.52ZM116.11,188.68c0-8.13,6.39-14.51,14.52-14.51s14.52,6.39,14.52,14.51-6.39,14.52-14.52,14.52-14.52-6.39-14.52-14.52ZM116.11,217.71c0-8.13,6.39-14.52,14.52-14.52s14.52,6.39,14.52,14.52-6.39,14.51-14.52,14.51-14.52-6.39-14.52-14.51ZM145.14,72.57c0-8.13,6.39-14.52,14.51-14.52s14.52,6.39,14.52,14.52-6.39,14.52-14.52,14.52-14.51-6.39-14.51-14.52ZM145.14,101.6c0-8.13,6.39-14.51,14.51-14.51s14.52,6.39,14.52,14.51-6.39,14.52-14.52,14.52-14.51-6.39-14.51-14.52ZM145.14,130.63c0-8.13,6.39-14.52,14.51-14.52s14.52,6.39,14.52,14.52-6.39,14.51-14.52,14.51-14.51-6.39-14.51-14.51ZM145.14,159.65c0-8.13,6.39-14.52,14.51-14.52s14.52,6.39,14.52,14.52-6.39,14.52-14.52,14.52-14.51-6.39-14.51-14.52ZM145.14,188.68c0-8.13,6.39-14.51,14.51-14.51s14.52,6.39,14.52,14.51-6.39,14.52-14.52,14.52-14.51-6.39-14.51-14.52ZM145.14,217.71c0-8.13,6.39-14.52,14.51-14.52s14.52,6.39,14.52,14.52-6.39,14.51-14.52,14.51-14.51-6.39-14.51-14.51ZM174.17,130.63c0-8.13,6.39-14.52,14.52-14.52s14.51,6.39,14.51,14.52-6.39,14.51-14.51,14.51-14.52-6.39-14.52-14.51ZM174.17,159.65c0-8.13,6.39-14.52,14.52-14.52s14.51,6.39,14.51,14.52-6.39,14.52-14.51,14.52-14.52-6.39-14.52-14.52ZM174.17,188.68c0-8.13,6.39-14.51,14.52-14.51s14.51,6.39,14.51,14.51-6.39,14.52-14.51,14.52-14.52-6.39-14.52-14.52ZM174.17,217.71c0-8.13,6.39-14.52,14.52-14.52s14.51,6.39,14.51,14.52-6.39,14.51-14.51,14.51-14.52-6.39-14.52-14.51ZM174.17,246.74c0-8.13,6.39-14.52,14.52-14.52s14.51,6.39,14.51,14.52-6.39,14.52-14.51,14.52-14.52-6.39-14.52-14.52ZM174.17,275.76c0-8.13,6.39-14.51,14.52-14.51s14.51,6.39,14.51,14.51-6.39,14.52-14.51,14.52-14.52-6.39-14.52-14.52ZM203.19,217.71c0-8.13,6.39-14.52,14.52-14.52s14.51,6.39,14.51,14.52-6.38,14.51-14.51,14.51-14.52-6.39-14.52-14.51ZM203.19,246.74c0-8.13,6.39-14.52,14.52-14.52s14.51,6.39,14.51,14.52-6.38,14.52-14.51,14.52-14.52-6.39-14.52-14.52ZM203.19,275.76c0-8.13,6.39-14.51,14.52-14.51s14.51,6.39,14.51,14.51-6.38,14.52-14.51,14.52-14.52-6.39-14.52-14.52Z"/>
</svg>