<?xml version="1.0" encoding="UTF-8"?>
<svg id="Calque_3" data-name="Calque 3" xmlns="http://www.w3.org/2000/svg" viewBox="0 0 292.48 290.28">
  <defs>
    <style>
      .cls-1 {
        fill: #ff7e22;
      }
    </style>
  </defs>
  <path class="cls-1" d="M0,217.71c0-8.13,6.39-14.52,14.52-14.52s14.51,6.39,14.51,14.52-6.39,14.51-14.51,14.51-14.52-6.39-14.52-14.51ZM0,246.74c0-8.13,6.39-14.52,14.52-14.52s14.51,6.39,14.51,14.52-6.39,14.52-14.51,14.52-14.52-6.39-14.52-14.52ZM0,275.76c0-8.13,6.39-14.51,14.52-14.51s14.51,6.39,14.51,14.51-6.39,14.52-14.51,14.52-14.52-6.39-14.52-14.52ZM29.03,130.63c0-8.13,6.39-14.52,14.52-14.52s14.52,6.39,14.52,14.52-6.39,14.51-14.52,14.51-14.52-6.39-14.52-14.51ZM29.03,159.65c0-8.13,6.39-14.52,14.52-14.52s14.52,6.39,14.52,14.52-6.39,14.52-14.52,14.52-14.52-6.39-14.52-14.52ZM29.03,188.68c0-8.13,6.39-14.51,14.52-14.51s14.52,6.39,14.52,14.51-6.39,14.52-14.52,14.52-14.52-6.39-14.52-14.52ZM29.03,217.71c0-8.13,6.39-14.52,14.52-14.52s14.52,6.39,14.52,14.52-6.39,14.51-14.52,14.51-14.52-6.39-14.52-14.51ZM29.03,246.74c0-8.13,6.39-14.52,14.52-14.52s14.52,6.39,14.52,14.52-6.39,14.52-14.52,14.52-14.52-6.39-14.52-14.52ZM29.03,275.76c0-8.13,6.39-14.51,14.52-14.51s14.52,6.39,14.52,14.51-6.39,14.52-14.52,14.52-14.52-6.39-14.52-14.52ZM58.06,72.57c0-8.13,6.39-14.52,14.51-14.52s14.52,6.39,14.52,14.52-6.39,14.52-14.52,14.52-14.51-6.39-14.51-14.52ZM58.06,101.6c0-8.13,6.39-14.51,14.51-14.51s14.52,6.39,14.52,14.51-6.39,14.52-14.52,14.52-14.51-6.39-14.51-14.52ZM58.06,130.63c0-8.13,6.39-14.52,14.51-14.52s14.52,6.39,14.52,14.52-6.39,14.51-14.52,14.51-14.51-6.39-14.51-14.51ZM58.06,159.65c0-8.13,6.39-14.52,14.51-14.52s14.52,6.39,14.52,14.52-6.39,14.52-14.52,14.52-14.51-6.39-14.51-14.52ZM58.06,188.68c0-8.13,6.39-14.51,14.51-14.51s14.52,6.39,14.52,14.51-6.39,14.52-14.52,14.52-14.51-6.39-14.51-14.52ZM58.06,217.71c0-8.13,6.39-14.52,14.51-14.52s14.52,6.39,14.52,14.52-6.39,14.51-14.52,14.51-14.51-6.39-14.51-14.51ZM87.08,14.52c0-8.13,6.39-14.52,14.52-14.52s14.51,6.39,14.51,14.52-6.39,14.51-14.51,14.51-14.52-6.39-14.52-14.51ZM87.08,43.54c0-8.13,6.39-14.52,14.52-14.52s14.51,6.39,14.51,14.52-6.39,14.51-14.51,14.51-14.52-6.38-14.52-14.51ZM87.08,72.57c0-8.13,6.39-14.52,14.52-14.52s14.51,6.39,14.51,14.52-6.39,14.52-14.51,14.52-14.52-6.39-14.52-14.52ZM87.08,101.6c0-8.13,6.39-14.51,14.52-14.51s14.51,6.39,14.51,14.51-6.39,14.52-14.51,14.52-14.52-6.39-14.52-14.52ZM87.08,188.68c0-8.13,6.39-14.51,14.52-14.51s14.51,6.39,14.51,14.51-6.39,14.52-14.51,14.52-14.52-6.39-14.52-14.52ZM87.08,217.71c0-8.13,6.39-14.52,14.52-14.52s14.51,6.39,14.51,14.52-6.39,14.51-14.51,14.51-14.52-6.39-14.52-14.51ZM116.11,14.52c0-8.13,6.39-14.52,14.52-14.52s14.52,6.39,14.52,14.52-6.39,14.51-14.52,14.51-14.52-6.39-14.52-14.51ZM116.11,43.54c0-8.13,6.39-14.52,14.52-14.52s14.52,6.39,14.52,14.52-6.39,14.51-14.52,14.51-14.52-6.38-14.52-14.51ZM116.11,72.57c0-8.13,6.39-14.52,14.52-14.52s14.52,6.39,14.52,14.52-6.39,14.52-14.52,14.52-14.52-6.39-14.52-14.52ZM116.11,101.6c0-8.13,6.39-14.51,14.52-14.51s14.52,6.39,14.52,14.51-6.39,14.52-14.52,14.52-14.52-6.39-14.52-14.52ZM116.11,188.68c0-8.13,6.39-14.51,14.52-14.51s14.52,6.39,14.52,14.51-6.39,14.52-14.52,14.52-14.52-6.39-14.52-14.52ZM116.11,217.71c0-8.13,6.39-14.52,14.52-14.52s14.52,6.39,14.52,14.52-6.39,14.51-14.52,14.51-14.52-6.39-14.52-14.51ZM145.14,72.57c0-8.13,6.39-14.52,14.51-14.52s14.52,6.39,14.52,14.52-6.39,14.52-14.52,14.52-14.51-6.39-14.51-14.52ZM145.14,101.6c0-8.13,6.39-14.51,14.51-14.51s14.52,6.39,14.52,14.51-6.39,14.52-14.52,14.52-14.51-6.39-14.51-14.52ZM145.14,130.63c0-8.13,6.39-14.52,14.51-14.52s14.52,6.39,14.52,14.52-6.39,14.51-14.52,14.51-14.51-6.39-14.51-14.51ZM145.14,159.65c0-8.13,6.39-14.52,14.51-14.52s14.52,6.39,14.52,14.52-6.39,14.52-14.52,14.52-14.51-6.39-14.51-14.52ZM145.14,188.68c0-8.13,6.39-14.51,14.51-14.51s14.52,6.39,14.52,14.51-6.39,14.52-14.52,14.52-14.51-6.39-14.51-14.52ZM145.14,217.71c0-8.13,6.39-14.52,14.51-14.52s14.52,6.39,14.52,14.52-6.39,14.51-14.52,14.51-14.51-6.39-14.51-14.51ZM174.17,130.63c0-8.13,6.39-14.52,14.52-14.52s14.51,6.39,14.51,14.52-6.39,14.51-14.51,14.51-14.52-6.39-14.52-14.51ZM174.17,159.65c0-8.13,6.39-14.52,14.52-14.52s14.51,6.39,14.51,14.52-6.39,14.52-14.51,14.52-14.52-6.39-14.52-14.52ZM174.17,188.68c0-8.13,6.39-14.51,14.52-14.51s14.51,6.39,14.51,14.51-6.39,14.52-14.51,14.52-14.52-6.39-14.52-14.52ZM174.17,217.71c0-8.13,6.39-14.52,14.52-14.52s14.51,6.39,14.51,14.52-6.39,14.51-14.51,14.51-14.52-6.39-14.52-14.51ZM174.17,246.74c0-8.13,6.39-14.52,14.52-14.52s14.51,6.39,14.51,14.52-6.39,14.52-14.51,14.52-14.52-6.39-14.52-14.52ZM174.17,275.76c0-8.13,6.39-14.51,14.52-14.51s14.51,6.39,14.51,14.51-6.39,14.52-14.51,14.52-14.52-6.39-14.52-14.52ZM203.19,217.71c0-8.13,6.39-14.52,14.52-14.52s14.51,6.39,14.51,14.52-6.38,14.51-14.51,14.51-14.52-6.39-14.52-14.51ZM203.19,246.74c0-8.13,6.39-14.52,14.52-14.52s14.51,6.39,14.51,14.52-6.38,14.52-14.51,14.52-14.52-6.39-14.52-14.52ZM203.19,275.76c0-8.13,6.39-14.51,14.52-14.51s14.51,6.39,14.51,14.51-6.38,14.52-14.51,14.52-14.52-6.39-14.52-14.52Z"/>
  <path class="cls-1" d="M262.35,58.05c-5.82,0-10.99-1.26-15.53-3.78-4.54-2.52-8.11-5.97-10.7-10.35-2.6-4.38-3.9-9.37-3.9-14.95s1.3-10.55,3.9-14.89c2.6-4.34,6.17-7.77,10.7-10.3,4.54-2.52,9.71-3.78,15.53-3.78s10.99,1.26,15.53,3.78c4.54,2.52,8.1,5.95,10.7,10.3,2.6,4.34,3.9,9.31,3.9,14.89s-1.3,10.47-3.9,14.89c-2.6,4.42-6.17,7.89-10.7,10.41-4.54,2.52-9.71,3.78-15.53,3.78ZM262.35,52.24c4.42,0,8.38-1.01,11.87-3.02,3.49-2.02,6.24-4.77,8.26-8.26,2.02-3.49,3.02-7.48,3.02-11.98s-1.01-8.36-3.02-11.81c-2.02-3.45-4.77-6.21-8.26-8.26-3.49-2.05-7.45-3.08-11.87-3.08s-8.38,1.03-11.87,3.08c-3.49,2.06-6.24,4.83-8.26,8.32-2.02,3.49-3.02,7.41-3.02,11.75s1.01,8.51,3.02,12.04c2.02,3.53,4.77,6.28,8.26,8.26,3.49,1.98,7.45,2.97,11.87,2.97ZM249.44,44.21V12.57h10.35v31.64h-10.35ZM264.56,32.34h-7.56v-5.82h6.17c1.16,0,2.04-.25,2.62-.76.58-.5.87-1.22.87-2.15,0-.85-.29-1.55-.87-2.09-.58-.54-1.42-.81-2.5-.81h-6.28v-8.14h6.75c4.11,0,7.31.95,9.6,2.85,2.29,1.9,3.43,4.44,3.43,7.62s-1.11,5.53-3.32,7.04c-2.21,1.51-5.18,2.27-8.9,2.27ZM266.89,44.21l-1.4-7.79c-.16-1.16-.45-1.92-.87-2.27-.43-.35-1.15-.52-2.15-.52h-3.84v-6.05h5.58c3.41,0,6.01.52,7.79,1.57,1.78,1.05,2.91,2.7,3.37,4.94l2.44,10.12h-10.94Z"/>
</svg>