<?xml version="1.0" encoding="UTF-8"?>
<svg id="Calque_1" data-name="Calque 1" xmlns="http://www.w3.org/2000/svg" viewBox="0 0 1344.99 362.69">
  <defs>
    <style>
      .cls-1 {
        fill: #ff7e22;
      }

      .cls-2 {
        fill: #1d1d1b;
      }
    </style>
  </defs>
  <g>
    <path class="cls-1" d="M0,203.96c0-6.72,5.28-12,12-12s11.99,5.28,11.99,12-5.28,12-11.99,12-12-5.28-12-12ZM0,227.95c0-6.72,5.28-12,12-12s11.99,5.28,11.99,12-5.28,12-11.99,12-12-5.28-12-12ZM0,251.94c0-6.72,5.28-12,12-12s11.99,5.28,11.99,12-5.28,12-11.99,12-12-5.28-12-12ZM23.99,131.97c0-6.72,5.28-12,12-12s12,5.28,12,12-5.28,12-12,12-12-5.28-12-12ZM23.99,155.97c0-6.72,5.28-12,12-12s12,5.28,12,12-5.28,12-12,12-12-5.28-12-12ZM23.99,179.96c0-6.72,5.28-12,12-12s12,5.28,12,12-5.28,12-12,12-12-5.28-12-12ZM23.99,203.96c0-6.72,5.28-12,12-12s12,5.28,12,12-5.28,12-12,12-12-5.28-12-12ZM23.99,227.95c0-6.72,5.28-12,12-12s12,5.28,12,12-5.28,12-12,12-12-5.28-12-12ZM23.99,251.94c0-6.72,5.28-12,12-12s12,5.28,12,12-5.28,12-12,12-12-5.28-12-12ZM47.98,83.98c0-6.72,5.28-12,11.99-12s12,5.28,12,12-5.28,12-12,12-11.99-5.28-11.99-12ZM47.98,107.97c0-6.72,5.28-12,11.99-12s12,5.28,12,12-5.28,12-12,12-11.99-5.28-11.99-12ZM47.98,131.97c0-6.72,5.28-12,11.99-12s12,5.28,12,12-5.28,12-12,12-11.99-5.28-11.99-12ZM47.98,155.97c0-6.72,5.28-12,11.99-12s12,5.28,12,12-5.28,12-12,12-11.99-5.28-11.99-12ZM47.98,179.96c0-6.72,5.28-12,11.99-12s12,5.28,12,12-5.28,12-12,12-11.99-5.28-11.99-12ZM47.98,203.96c0-6.72,5.28-12,11.99-12s12,5.28,12,12-5.28,12-12,12-11.99-5.28-11.99-12ZM71.97,35.99c0-6.72,5.28-12,12-12s11.99,5.28,11.99,12-5.28,12-11.99,12-12-5.28-12-12ZM71.97,59.99c0-6.72,5.28-12,12-12s11.99,5.28,11.99,12-5.28,12-11.99,12-12-5.28-12-12ZM71.97,83.98c0-6.72,5.28-12,12-12s11.99,5.28,11.99,12-5.28,12-11.99,12-12-5.28-12-12ZM71.97,107.97c0-6.72,5.28-12,12-12s11.99,5.28,11.99,12-5.28,12-11.99,12-12-5.28-12-12ZM71.97,179.96c0-6.72,5.28-12,12-12s11.99,5.28,11.99,12-5.28,12-11.99,12-12-5.28-12-12ZM71.97,203.96c0-6.72,5.28-12,12-12s11.99,5.28,11.99,12-5.28,12-11.99,12-12-5.28-12-12ZM95.95,35.99c0-6.72,5.28-12,12-12s12,5.28,12,12-5.28,12-12,12-12-5.28-12-12ZM95.95,59.99c0-6.72,5.28-12,12-12s12,5.28,12,12-5.28,12-12,12-12-5.28-12-12ZM95.95,83.98c0-6.72,5.28-12,12-12s12,5.28,12,12-5.28,12-12,12-12-5.28-12-12ZM95.95,107.97c0-6.72,5.28-12,12-12s12,5.28,12,12-5.28,12-12,12-12-5.28-12-12ZM95.95,179.96c0-6.72,5.28-12,12-12s12,5.28,12,12-5.28,12-12,12-12-5.28-12-12ZM95.95,203.96c0-6.72,5.28-12,12-12s12,5.28,12,12-5.28,12-12,12-12-5.28-12-12ZM119.94,83.98c0-6.72,5.28-12,11.99-12s12,5.28,12,12-5.28,12-12,12-11.99-5.28-11.99-12ZM119.94,107.97c0-6.72,5.28-12,11.99-12s12,5.28,12,12-5.28,12-12,12-11.99-5.28-11.99-12ZM119.94,131.97c0-6.72,5.28-12,11.99-12s12,5.28,12,12-5.28,12-12,12-11.99-5.28-11.99-12ZM119.94,155.97c0-6.72,5.28-12,11.99-12s12,5.28,12,12-5.28,12-12,12-11.99-5.28-11.99-12ZM119.94,179.96c0-6.72,5.28-12,11.99-12s12,5.28,12,12-5.28,12-12,12-11.99-5.28-11.99-12ZM119.94,203.96c0-6.72,5.28-12,11.99-12s12,5.28,12,12-5.28,12-12,12-11.99-5.28-11.99-12ZM143.93,131.97c0-6.72,5.28-12,12-12s11.99,5.28,11.99,12-5.28,12-11.99,12-12-5.28-12-12ZM143.93,155.97c0-6.72,5.28-12,12-12s11.99,5.28,11.99,12-5.28,12-11.99,12-12-5.28-12-12ZM143.93,179.96c0-6.72,5.28-12,12-12s11.99,5.28,11.99,12-5.28,12-11.99,12-12-5.28-12-12ZM143.93,203.96c0-6.72,5.28-12,12-12s11.99,5.28,11.99,12-5.28,12-11.99,12-12-5.28-12-12ZM143.93,227.95c0-6.72,5.28-12,12-12s11.99,5.28,11.99,12-5.28,12-11.99,12-12-5.28-12-12ZM143.93,251.94c0-6.72,5.28-12,12-12s11.99,5.28,11.99,12-5.28,12-11.99,12-12-5.28-12-12ZM167.92,203.96c0-6.72,5.28-12,12-12s11.99,5.28,11.99,12-5.27,12-11.99,12-12-5.28-12-12ZM167.92,227.95c0-6.72,5.28-12,12-12s11.99,5.28,11.99,12-5.27,12-11.99,12-12-5.28-12-12ZM167.92,251.94c0-6.72,5.28-12,12-12s11.99,5.28,11.99,12-5.27,12-11.99,12-12-5.28-12-12Z"/>
    <path class="cls-1" d="M191.89,83.98c0-6.72,5.28-12,12-12s11.99,5.28,11.99,12-5.28,12-11.99,12-12-5.28-12-12ZM191.89,107.97c0-6.72,5.28-12,12-12s11.99,5.28,11.99,12-5.28,12-11.99,12-12-5.28-12-12ZM191.89,131.97c0-6.72,5.28-12,12-12s11.99,5.28,11.99,12-5.28,12-11.99,12-12-5.28-12-12ZM215.88,83.98c0-6.72,5.28-12,12-12s12,5.28,12,12-5.28,12-12,12-12-5.28-12-12ZM215.88,107.97c0-6.72,5.28-12,12-12s12,5.28,12,12-5.28,12-12,12-12-5.28-12-12ZM215.88,131.97c0-6.72,5.28-12,12-12s12,5.28,12,12-5.28,12-12,12-12-5.28-12-12ZM215.88,155.97c0-6.72,5.28-12,12-12s12,5.28,12,12-5.28,12-12,12-12-5.28-12-12ZM215.88,179.96c0-6.72,5.28-12,12-12s12,5.28,12,12-5.28,12-12,12-12-5.28-12-12ZM215.88,203.96c0-6.72,5.28-12,12-12s12,5.28,12,12-5.28,12-12,12-12-5.28-12-12ZM239.87,131.97c0-6.72,5.28-12,11.99-12s12,5.28,12,12-5.28,12-12,12-11.99-5.28-11.99-12ZM239.87,155.97c0-6.72,5.28-12,11.99-12s12,5.28,12,12-5.28,12-12,12-11.99-5.28-11.99-12ZM239.87,179.96c0-6.72,5.28-12,11.99-12s12,5.28,12,12-5.28,12-12,12-11.99-5.28-11.99-12ZM239.87,203.96c0-6.72,5.28-12,11.99-12s12,5.28,12,12-5.28,12-12,12-11.99-5.28-11.99-12ZM239.87,227.95c0-6.72,5.28-12,11.99-12s12,5.28,12,12-5.28,12-12,12-11.99-5.28-11.99-12ZM239.87,251.94c0-6.72,5.28-12,11.99-12s12,5.28,12,12-5.28,12-12,12-11.99-5.28-11.99-12ZM263.86,179.96c0-6.72,5.28-12,12-12s11.99,5.28,11.99,12-5.28,12-11.99,12-12-5.28-12-12ZM263.86,203.96c0-6.72,5.28-12,12-12s11.99,5.28,11.99,12-5.28,12-11.99,12-12-5.28-12-12ZM263.86,227.95c0-6.72,5.28-12,12-12s11.99,5.28,11.99,12-5.28,12-11.99,12-12-5.28-12-12ZM263.86,251.94c0-6.72,5.28-12,12-12s11.99,5.28,11.99,12-5.28,12-11.99,12-12-5.28-12-12ZM287.85,131.97c0-6.72,5.28-12,12-12s12,5.28,12,12-5.28,12-12,12-12-5.28-12-12ZM287.85,155.97c0-6.72,5.28-12,12-12s12,5.28,12,12-5.28,12-12,12-12-5.28-12-12ZM287.85,179.96c0-6.72,5.28-12,12-12s12,5.28,12,12-5.28,12-12,12-12-5.28-12-12ZM287.85,203.96c0-6.72,5.28-12,12-12s12,5.28,12,12-5.28,12-12,12-12-5.28-12-12ZM311.84,83.98c0-6.72,5.28-12,11.99-12s12,5.28,12,12-5.28,12-12,12-11.99-5.28-11.99-12ZM311.84,107.97c0-6.72,5.28-12,11.99-12s12,5.28,12,12-5.28,12-12,12-11.99-5.28-11.99-12ZM311.84,131.97c0-6.72,5.28-12,11.99-12s12,5.28,12,12-5.28,12-12,12-11.99-5.28-11.99-12ZM311.84,155.97c0-6.72,5.28-12,11.99-12s12,5.28,12,12-5.28,12-12,12-11.99-5.28-11.99-12ZM335.83,83.98c0-6.72,5.28-12,12-12s11.99,5.28,11.99,12-5.28,12-11.99,12-12-5.28-12-12ZM335.83,107.97c0-6.72,5.28-12,12-12s11.99,5.28,11.99,12-5.28,12-11.99,12-12-5.28-12-12ZM335.83,131.97c0-6.72,5.28-12,12-12s11.99,5.28,11.99,12-5.28,12-11.99,12-12-5.28-12-12ZM335.83,155.97c0-6.72,5.28-12,12-12s11.99,5.28,11.99,12-5.28,12-11.99,12-12-5.28-12-12ZM359.81,131.97c0-6.72,5.28-12,12-12s11.99,5.28,11.99,12-5.27,12-11.99,12-12-5.28-12-12ZM359.81,155.97c0-6.72,5.28-12,12-12s11.99,5.28,11.99,12-5.27,12-11.99,12-12-5.28-12-12ZM359.81,179.96c0-6.72,5.28-12,12-12s11.99,5.28,11.99,12-5.27,12-11.99,12-12-5.28-12-12ZM359.81,203.96c0-6.72,5.28-12,12-12s11.99,5.28,11.99,12-5.27,12-11.99,12-12-5.28-12-12ZM383.8,179.96c0-6.72,5.28-12,12-12s12,5.28,12,12-5.28,12-12,12-12-5.28-12-12ZM383.8,203.96c0-6.72,5.28-12,12-12s12,5.28,12,12-5.28,12-12,12-12-5.28-12-12ZM383.8,227.95c0-6.72,5.28-12,12-12s12,5.28,12,12-5.28,12-12,12-12-5.28-12-12ZM383.8,251.94c0-6.72,5.28-12,12-12s12,5.28,12,12-5.28,12-12,12-12-5.28-12-12ZM407.79,131.97c0-6.72,5.28-12,11.99-12s12,5.28,12,12-5.28,12-12,12-11.99-5.28-11.99-12ZM407.79,155.97c0-6.72,5.28-12,11.99-12s12,5.28,12,12-5.28,12-12,12-11.99-5.28-11.99-12ZM407.79,179.96c0-6.72,5.28-12,11.99-12s12,5.28,12,12-5.28,12-12,12-11.99-5.28-11.99-12ZM407.79,203.96c0-6.72,5.28-12,11.99-12s12,5.28,12,12-5.28,12-12,12-11.99-5.28-11.99-12ZM407.79,227.95c0-6.72,5.28-12,11.99-12s12,5.28,12,12-5.28,12-12,12-11.99-5.28-11.99-12ZM407.79,251.94c0-6.72,5.28-12,11.99-12s12,5.28,12,12-5.28,12-12,12-11.99-5.28-11.99-12ZM431.78,83.98c0-6.72,5.28-12,12-12s11.99,5.28,11.99,12-5.28,12-11.99,12-12-5.28-12-12ZM431.78,107.97c0-6.72,5.28-12,12-12s11.99,5.28,11.99,12-5.28,12-11.99,12-12-5.28-12-12ZM431.78,131.97c0-6.72,5.28-12,12-12s11.99,5.28,11.99,12-5.28,12-11.99,12-12-5.28-12-12ZM431.78,155.97c0-6.72,5.28-12,12-12s11.99,5.28,11.99,12-5.28,12-11.99,12-12-5.28-12-12ZM431.78,179.96c0-6.72,5.28-12,12-12s11.99,5.28,11.99,12-5.28,12-11.99,12-12-5.28-12-12ZM431.78,203.96c0-6.72,5.28-12,12-12s11.99,5.28,11.99,12-5.28,12-11.99,12-12-5.28-12-12ZM455.77,83.98c0-6.72,5.28-12,12-12s12,5.28,12,12-5.28,12-12,12-12-5.28-12-12ZM455.77,107.97c0-6.72,5.28-12,12-12s12,5.28,12,12-5.28,12-12,12-12-5.28-12-12ZM455.77,131.97c0-6.72,5.28-12,12-12s12,5.28,12,12-5.28,12-12,12-12-5.28-12-12Z"/>
    <path class="cls-1" d="M503.69,107.97c0-6.72,5.28-12,12-12s11.99,5.28,11.99,12-5.28,12-11.99,12-12-5.28-12-12ZM503.69,179.96c0-6.72,5.28-12,12-12s11.99,5.28,11.99,12-5.28,12-11.99,12-12-5.28-12-12ZM503.69,203.96c0-6.72,5.28-12,12-12s11.99,5.28,11.99,12-5.28,12-11.99,12-12-5.28-12-12ZM503.69,227.95c0-6.72,5.28-12,12-12s11.99,5.28,11.99,12-5.28,12-11.99,12-12-5.28-12-12ZM527.68,83.98c0-6.72,5.28-12,12-12s12,5.28,12,12-5.28,12-12,12-12-5.28-12-12ZM527.68,107.97c0-6.72,5.28-12,12-12s12,5.28,12,12-5.28,12-12,12-12-5.28-12-12ZM527.68,179.96c0-6.72,5.28-12,12-12s12,5.28,12,12-5.28,12-12,12-12-5.28-12-12ZM527.68,203.96c0-6.72,5.28-12,12-12s12,5.28,12,12-5.28,12-12,12-12-5.28-12-12ZM527.68,227.95c0-6.72,5.28-12,12-12s12,5.28,12,12-5.28,12-12,12-12-5.28-12-12ZM527.68,251.94c0-6.72,5.28-12,12-12s12,5.28,12,12-5.28,12-12,12-12-5.28-12-12ZM551.67,83.98c0-6.72,5.28-12,11.99-12s12,5.28,12,12-5.28,12-12,12-11.99-5.28-11.99-12ZM551.67,107.97c0-6.72,5.28-12,11.99-12s12,5.28,12,12-5.28,12-12,12-11.99-5.28-11.99-12ZM551.67,155.97c0-6.72,5.28-12,11.99-12s12,5.28,12,12-5.28,12-12,12-11.99-5.28-11.99-12ZM551.67,179.96c0-6.72,5.28-12,11.99-12s12,5.28,12,12-5.28,12-12,12-11.99-5.28-11.99-12ZM551.67,227.95c0-6.72,5.28-12,11.99-12s12,5.28,12,12-5.28,12-12,12-11.99-5.28-11.99-12ZM551.67,251.94c0-6.72,5.28-12,11.99-12s12,5.28,12,12-5.28,12-12,12-11.99-5.28-11.99-12ZM575.66,83.98c0-6.72,5.28-12,12-12s11.99,5.28,11.99,12-5.28,12-11.99,12-12-5.28-12-12ZM575.66,107.97c0-6.72,5.28-12,12-12s11.99,5.28,11.99,12-5.28,12-11.99,12-12-5.28-12-12ZM575.66,155.97c0-6.72,5.28-12,12-12s11.99,5.28,11.99,12-5.28,12-11.99,12-12-5.28-12-12ZM575.66,179.96c0-6.72,5.28-12,12-12s11.99,5.28,11.99,12-5.28,12-11.99,12-12-5.28-12-12ZM575.66,227.95c0-6.72,5.28-12,12-12s11.99,5.28,11.99,12-5.28,12-11.99,12-12-5.28-12-12ZM575.66,251.94c0-6.72,5.28-12,12-12s11.99,5.28,11.99,12-5.28,12-11.99,12-12-5.28-12-12ZM599.65,83.98c0-6.72,5.28-12,12-12s12,5.28,12,12-5.28,12-12,12-12-5.28-12-12ZM599.65,107.97c0-6.72,5.28-12,12-12s12,5.28,12,12-5.28,12-12,12-12-5.28-12-12ZM599.65,155.97c0-6.72,5.28-12,12-12s12,5.28,12,12-5.28,12-12,12-12-5.28-12-12ZM599.65,179.96c0-6.72,5.28-12,12-12s12,5.28,12,12-5.28,12-12,12-12-5.28-12-12ZM599.65,227.95c0-6.72,5.28-12,12-12s12,5.28,12,12-5.28,12-12,12-12-5.28-12-12ZM623.64,83.98c0-6.72,5.28-12,11.99-12s12,5.28,12,12-5.28,12-12,12-11.99-5.28-11.99-12ZM623.64,107.97c0-6.72,5.28-12,11.99-12s12,5.28,12,12-5.28,12-12,12-11.99-5.28-11.99-12ZM623.64,131.97c0-6.72,5.28-12,11.99-12s12,5.28,12,12-5.28,12-12,12-11.99-5.28-11.99-12ZM623.64,155.97c0-6.72,5.28-12,11.99-12s12,5.28,12,12-5.28,12-12,12-11.99-5.28-11.99-12ZM623.64,179.96c0-6.72,5.28-12,11.99-12s12,5.28,12,12-5.28,12-12,12-11.99-5.28-11.99-12ZM623.64,203.96c0-6.72,5.28-12,11.99-12s12,5.28,12,12-5.28,12-12,12-11.99-5.28-11.99-12ZM623.64,227.95c0-6.72,5.28-12,11.99-12s12,5.28,12,12-5.28,12-12,12-11.99-5.28-11.99-12ZM623.64,251.94c0-6.72,5.28-12,11.99-12s12,5.28,12,12-5.28,12-12,12-11.99-5.28-11.99-12ZM647.63,107.97c0-6.72,5.28-12,12-12s11.99,5.28,11.99,12-5.28,12-11.99,12-12-5.28-12-12ZM647.63,131.97c0-6.72,5.28-12,12-12s11.99,5.28,11.99,12-5.28,12-11.99,12-12-5.28-12-12ZM647.63,155.97c0-6.72,5.28-12,12-12s11.99,5.28,11.99,12-5.28,12-11.99,12-12-5.28-12-12ZM647.63,179.96c0-6.72,5.28-12,12-12s11.99,5.28,11.99,12-5.28,12-11.99,12-12-5.28-12-12ZM647.63,203.96c0-6.72,5.28-12,12-12s11.99,5.28,11.99,12-5.28,12-11.99,12-12-5.28-12-12ZM647.63,227.95c0-6.72,5.28-12,12-12s11.99,5.28,11.99,12-5.28,12-11.99,12-12-5.28-12-12ZM647.63,251.94c0-6.72,5.28-12,12-12s11.99,5.28,11.99,12-5.28,12-11.99,12-12-5.28-12-12Z"/>
    <path class="cls-1" d="M695.59,12c0-6.72,5.28-12,12-12s11.99,5.28,11.99,12-5.28,12-11.99,12-12-5.28-12-12ZM695.59,35.99c0-6.72,5.28-12,12-12s11.99,5.28,11.99,12-5.28,12-11.99,12-12-5.28-12-12ZM695.59,59.99c0-6.72,5.28-12,12-12s11.99,5.28,11.99,12-5.28,12-11.99,12-12-5.28-12-12ZM695.59,83.98c0-6.72,5.28-12,12-12s11.99,5.28,11.99,12-5.28,12-11.99,12-12-5.28-12-12ZM695.59,107.97c0-6.72,5.28-12,12-12s11.99,5.28,11.99,12-5.28,12-11.99,12-12-5.28-12-12ZM695.59,131.97c0-6.72,5.28-12,12-12s11.99,5.28,11.99,12-5.28,12-11.99,12-12-5.28-12-12ZM695.59,155.97c0-6.72,5.28-12,12-12s11.99,5.28,11.99,12-5.28,12-11.99,12-12-5.28-12-12ZM695.59,179.96c0-6.72,5.28-12,12-12s11.99,5.28,11.99,12-5.28,12-11.99,12-12-5.28-12-12ZM695.59,203.96c0-6.72,5.28-12,12-12s11.99,5.28,11.99,12-5.28,12-11.99,12-12-5.28-12-12ZM695.59,227.95c0-6.72,5.28-12,12-12s11.99,5.28,11.99,12-5.28,12-11.99,12-12-5.28-12-12ZM695.59,251.94c0-6.72,5.28-12,12-12s11.99,5.28,11.99,12-5.28,12-11.99,12-12-5.28-12-12ZM719.58,12c0-6.72,5.28-12,12-12s12,5.28,12,12-5.28,12-12,12-12-5.28-12-12ZM719.58,35.99c0-6.72,5.28-12,12-12s12,5.28,12,12-5.28,12-12,12-12-5.28-12-12ZM719.58,59.99c0-6.72,5.28-12,12-12s12,5.28,12,12-5.28,12-12,12-12-5.28-12-12ZM719.58,83.98c0-6.72,5.28-12,12-12s12,5.28,12,12-5.28,12-12,12-12-5.28-12-12ZM719.58,107.97c0-6.72,5.28-12,12-12s12,5.28,12,12-5.28,12-12,12-12-5.28-12-12ZM719.58,131.97c0-6.72,5.28-12,12-12s12,5.28,12,12-5.28,12-12,12-12-5.28-12-12ZM719.58,155.97c0-6.72,5.28-12,12-12s12,5.28,12,12-5.28,12-12,12-12-5.28-12-12ZM719.58,179.96c0-6.72,5.28-12,12-12s12,5.28,12,12-5.28,12-12,12-12-5.28-12-12ZM719.58,203.96c0-6.72,5.28-12,12-12s12,5.28,12,12-5.28,12-12,12-12-5.28-12-12ZM719.58,227.95c0-6.72,5.28-12,12-12s12,5.28,12,12-5.28,12-12,12-12-5.28-12-12ZM743.57,107.97c0-6.72,5.28-12,11.99-12s12,5.28,12,12-5.28,12-12,12-11.99-5.28-11.99-12ZM743.57,131.97c0-6.72,5.28-12,11.99-12s12,5.28,12,12-5.28,12-12,12-11.99-5.28-11.99-12ZM743.57,227.95c0-6.72,5.28-12,11.99-12s12,5.28,12,12-5.28,12-12,12-11.99-5.28-11.99-12ZM743.57,251.94c0-6.72,5.28-12,11.99-12s12,5.28,12,12-5.28,12-12,12-11.99-5.28-11.99-12ZM767.55,83.98c0-6.72,5.28-12,12-12s11.99,5.28,11.99,12-5.28,12-11.99,12-12-5.28-12-12ZM767.55,107.97c0-6.72,5.28-12,12-12s11.99,5.28,11.99,12-5.28,12-11.99,12-12-5.28-12-12ZM767.55,227.95c0-6.72,5.28-12,12-12s11.99,5.28,11.99,12-5.28,12-11.99,12-12-5.28-12-12ZM767.55,251.94c0-6.72,5.28-12,12-12s11.99,5.28,11.99,12-5.28,12-11.99,12-12-5.28-12-12ZM791.54,83.98c0-6.72,5.28-12,12-12s12,5.28,12,12-5.28,12-12,12-12-5.28-12-12ZM791.54,107.97c0-6.72,5.28-12,12-12s12,5.28,12,12-5.28,12-12,12-12-5.28-12-12ZM791.54,227.95c0-6.72,5.28-12,12-12s12,5.28,12,12-5.28,12-12,12-12-5.28-12-12ZM791.54,251.94c0-6.72,5.28-12,12-12s12,5.28,12,12-5.28,12-12,12-12-5.28-12-12ZM815.53,83.98c0-6.72,5.28-12,11.99-12s12,5.28,12,12-5.28,12-12,12-11.99-5.28-11.99-12ZM815.53,107.97c0-6.72,5.28-12,11.99-12s12,5.28,12,12-5.28,12-12,12-11.99-5.28-11.99-12ZM815.53,131.97c0-6.72,5.28-12,11.99-12s12,5.28,12,12-5.28,12-12,12-11.99-5.28-11.99-12ZM815.53,203.96c0-6.72,5.28-12,11.99-12s12,5.28,12,12-5.28,12-12,12-11.99-5.28-11.99-12ZM815.53,227.95c0-6.72,5.28-12,11.99-12s12,5.28,12,12-5.28,12-12,12-11.99-5.28-11.99-12ZM815.53,251.94c0-6.72,5.28-12,11.99-12s12,5.28,12,12-5.28,12-12,12-11.99-5.28-11.99-12ZM839.52,107.97c0-6.72,5.28-12,12-12s11.99,5.28,11.99,12-5.28,12-11.99,12-12-5.28-12-12ZM839.52,131.97c0-6.72,5.28-12,12-12s11.99,5.28,11.99,12-5.28,12-11.99,12-12-5.28-12-12ZM839.52,155.97c0-6.72,5.28-12,12-12s11.99,5.28,11.99,12-5.28,12-11.99,12-12-5.28-12-12ZM839.52,179.96c0-6.72,5.28-12,12-12s11.99,5.28,11.99,12-5.28,12-11.99,12-12-5.28-12-12ZM839.52,203.96c0-6.72,5.28-12,12-12s11.99,5.28,11.99,12-5.28,12-11.99,12-12-5.28-12-12ZM839.52,227.95c0-6.72,5.28-12,12-12s11.99,5.28,11.99,12-5.28,12-11.99,12-12-5.28-12-12ZM863.51,131.97c0-6.72,5.28-12,12-12s11.99,5.28,11.99,12-5.27,12-11.99,12-12-5.28-12-12ZM863.51,155.97c0-6.72,5.28-12,12-12s11.99,5.28,11.99,12-5.27,12-11.99,12-12-5.28-12-12ZM863.51,179.96c0-6.72,5.28-12,12-12s11.99,5.28,11.99,12-5.27,12-11.99,12-12-5.28-12-12ZM863.51,203.96c0-6.72,5.28-12,12-12s11.99,5.28,11.99,12-5.27,12-11.99,12-12-5.28-12-12Z"/>
    <path class="cls-1" d="M911.47,131.97c0-6.72,5.28-12,12-12s11.99,5.28,11.99,12-5.28,12-11.99,12-12-5.28-12-12ZM911.47,155.97c0-6.72,5.28-12,12-12s11.99,5.28,11.99,12-5.28,12-11.99,12-12-5.28-12-12ZM911.47,179.96c0-6.72,5.28-12,12-12s11.99,5.28,11.99,12-5.28,12-11.99,12-12-5.28-12-12ZM911.47,203.96c0-6.72,5.28-12,12-12s11.99,5.28,11.99,12-5.28,12-11.99,12-12-5.28-12-12ZM935.46,107.97c0-6.72,5.28-12,12-12s12,5.28,12,12-5.28,12-12,12-12-5.28-12-12ZM935.46,131.97c0-6.72,5.28-12,12-12s12,5.28,12,12-5.28,12-12,12-12-5.28-12-12ZM935.46,155.97c0-6.72,5.28-12,12-12s12,5.28,12,12-5.28,12-12,12-12-5.28-12-12ZM935.46,179.96c0-6.72,5.28-12,12-12s12,5.28,12,12-5.28,12-12,12-12-5.28-12-12ZM935.46,203.96c0-6.72,5.28-12,12-12s12,5.28,12,12-5.28,12-12,12-12-5.28-12-12ZM935.46,227.95c0-6.72,5.28-12,12-12s12,5.28,12,12-5.28,12-12,12-12-5.28-12-12ZM959.45,83.98c0-6.72,5.28-12,11.99-12s12,5.28,12,12-5.28,12-12,12-11.99-5.28-11.99-12ZM959.45,107.97c0-6.72,5.28-12,11.99-12s12,5.28,12,12-5.28,12-12,12-11.99-5.28-11.99-12ZM959.45,131.97c0-6.72,5.28-12,11.99-12s12,5.28,12,12-5.28,12-12,12-11.99-5.28-11.99-12ZM959.45,203.96c0-6.72,5.28-12,11.99-12s12,5.28,12,12-5.28,12-12,12-11.99-5.28-11.99-12ZM959.45,227.95c0-6.72,5.28-12,11.99-12s12,5.28,12,12-5.28,12-12,12-11.99-5.28-11.99-12ZM959.45,251.94c0-6.72,5.28-12,11.99-12s12,5.28,12,12-5.28,12-12,12-11.99-5.28-11.99-12ZM983.43,83.98c0-6.72,5.28-12,12-12s11.99,5.28,11.99,12-5.28,12-11.99,12-12-5.28-12-12ZM983.43,107.97c0-6.72,5.28-12,12-12s11.99,5.28,11.99,12-5.28,12-11.99,12-12-5.28-12-12ZM983.43,227.95c0-6.72,5.28-12,12-12s11.99,5.28,11.99,12-5.28,12-11.99,12-12-5.28-12-12ZM983.43,251.94c0-6.72,5.28-12,12-12s11.99,5.28,11.99,12-5.28,12-11.99,12-12-5.28-12-12ZM1007.42,83.98c0-6.72,5.28-12,12-12s12,5.28,12,12-5.28,12-12,12-12-5.28-12-12ZM1007.42,107.97c0-6.72,5.28-12,12-12s12,5.28,12,12-5.28,12-12,12-12-5.28-12-12ZM1007.42,227.95c0-6.72,5.28-12,12-12s12,5.28,12,12-5.28,12-12,12-12-5.28-12-12ZM1007.42,251.94c0-6.72,5.28-12,12-12s12,5.28,12,12-5.28,12-12,12-12-5.28-12-12ZM1031.41,83.98c0-6.72,5.28-12,11.99-12s12,5.28,12,12-5.28,12-12,12-11.99-5.28-11.99-12ZM1031.41,107.97c0-6.72,5.28-12,11.99-12s12,5.28,12,12-5.28,12-12,12-11.99-5.28-11.99-12ZM1031.41,131.97c0-6.72,5.28-12,11.99-12s12,5.28,12,12-5.28,12-12,12-11.99-5.28-11.99-12ZM1031.41,203.96c0-6.72,5.28-12,11.99-12s12,5.28,12,12-5.28,12-12,12-11.99-5.28-11.99-12ZM1031.41,227.95c0-6.72,5.28-12,11.99-12s12,5.28,12,12-5.28,12-12,12-11.99-5.28-11.99-12ZM1031.41,251.94c0-6.72,5.28-12,11.99-12s12,5.28,12,12-5.28,12-12,12-11.99-5.28-11.99-12ZM1055.4,107.97c0-6.72,5.28-12,12-12s11.99,5.28,11.99,12-5.28,12-11.99,12-12-5.28-12-12ZM1055.4,131.97c0-6.72,5.28-12,12-12s11.99,5.28,11.99,12-5.28,12-11.99,12-12-5.28-12-12ZM1055.4,155.97c0-6.72,5.28-12,12-12s11.99,5.28,11.99,12-5.28,12-11.99,12-12-5.28-12-12ZM1055.4,179.96c0-6.72,5.28-12,12-12s11.99,5.28,11.99,12-5.28,12-11.99,12-12-5.28-12-12ZM1055.4,203.96c0-6.72,5.28-12,12-12s11.99,5.28,11.99,12-5.28,12-11.99,12-12-5.28-12-12ZM1055.4,227.95c0-6.72,5.28-12,12-12s11.99,5.28,11.99,12-5.28,12-11.99,12-12-5.28-12-12ZM1079.39,131.97c0-6.72,5.28-12,12-12s12,5.28,12,12-5.28,12-12,12-12-5.28-12-12ZM1079.39,155.97c0-6.72,5.28-12,12-12s12,5.28,12,12-5.28,12-12,12-12-5.28-12-12ZM1079.39,179.96c0-6.72,5.28-12,12-12s12,5.28,12,12-5.28,12-12,12-12-5.28-12-12ZM1079.39,203.96c0-6.72,5.28-12,12-12s12,5.28,12,12-5.28,12-12,12-12-5.28-12-12Z"/>
    <path class="cls-1" d="M1103.36,107.97c0-6.72,5.28-12,11.99-12s12,5.28,12,12-5.28,12-12,12-11.99-5.28-11.99-12ZM1127.35,83.98c0-6.72,5.28-12,12-12s11.99,5.28,11.99,12-5.28,12-11.99,12-12-5.28-12-12ZM1127.35,107.97c0-6.72,5.28-12,12-12s11.99,5.28,11.99,12-5.28,12-11.99,12-12-5.28-12-12ZM1151.33,59.99c0-6.72,5.28-12,12-12s12,5.28,12,12-5.28,12-12,12-12-5.28-12-12ZM1151.33,83.98c0-6.72,5.28-12,12-12s12,5.28,12,12-5.28,12-12,12-12-5.28-12-12ZM1151.33,107.97c0-6.72,5.28-12,12-12s12,5.28,12,12-5.28,12-12,12-12-5.28-12-12ZM1151.33,131.97c0-6.72,5.28-12,12-12s12,5.28,12,12-5.28,12-12,12-12-5.28-12-12ZM1151.33,155.97c0-6.72,5.28-12,12-12s12,5.28,12,12-5.28,12-12,12-12-5.28-12-12ZM1151.33,179.96c0-6.72,5.28-12,12-12s12,5.28,12,12-5.28,12-12,12-12-5.28-12-12ZM1151.33,203.96c0-6.72,5.28-12,12-12s12,5.28,12,12-5.28,12-12,12-12-5.28-12-12ZM1151.33,227.95c0-6.72,5.28-12,12-12s12,5.28,12,12-5.28,12-12,12-12-5.28-12-12ZM1175.33,35.99c0-6.72,5.28-12,11.99-12s12,5.28,12,12-5.28,12-12,12-11.99-5.28-11.99-12ZM1175.33,59.99c0-6.72,5.28-12,11.99-12s12,5.28,12,12-5.28,12-12,12-11.99-5.28-11.99-12ZM1175.33,83.98c0-6.72,5.28-12,11.99-12s12,5.28,12,12-5.28,12-12,12-11.99-5.28-11.99-12ZM1175.33,107.97c0-6.72,5.28-12,11.99-12s12,5.28,12,12-5.28,12-12,12-11.99-5.28-11.99-12ZM1175.33,131.97c0-6.72,5.28-12,11.99-12s12,5.28,12,12-5.28,12-12,12-11.99-5.28-11.99-12ZM1175.33,155.97c0-6.72,5.28-12,11.99-12s12,5.28,12,12-5.28,12-12,12-11.99-5.28-11.99-12ZM1175.33,179.96c0-6.72,5.28-12,11.99-12s12,5.28,12,12-5.28,12-12,12-11.99-5.28-11.99-12ZM1175.33,203.96c0-6.72,5.28-12,11.99-12s12,5.28,12,12-5.28,12-12,12-11.99-5.28-11.99-12ZM1175.33,227.95c0-6.72,5.28-12,11.99-12s12,5.28,12,12-5.28,12-12,12-11.99-5.28-11.99-12ZM1175.33,251.94c0-6.72,5.28-12,11.99-12s12,5.28,12,12-5.28,12-12,12-11.99-5.28-11.99-12ZM1199.31,83.98c0-6.72,5.28-12,12-12s11.99,5.28,11.99,12-5.28,12-11.99,12-12-5.28-12-12ZM1199.31,107.97c0-6.72,5.28-12,12-12s11.99,5.28,11.99,12-5.28,12-11.99,12-12-5.28-12-12ZM1199.31,227.95c0-6.72,5.28-12,12-12s11.99,5.28,11.99,12-5.28,12-11.99,12-12-5.28-12-12ZM1199.31,251.94c0-6.72,5.28-12,12-12s11.99,5.28,11.99,12-5.28,12-11.99,12-12-5.28-12-12ZM1223.3,83.98c0-6.72,5.28-12,12-12s12,5.28,12,12-5.28,12-12,12-12-5.28-12-12ZM1223.3,107.97c0-6.72,5.28-12,12-12s12,5.28,12,12-5.28,12-12,12-12-5.28-12-12ZM1223.3,227.95c0-6.72,5.28-12,12-12s12,5.28,12,12-5.28,12-12,12-12-5.28-12-12ZM1223.3,251.94c0-6.72,5.28-12,12-12s12,5.28,12,12-5.28,12-12,12-12-5.28-12-12ZM1247.29,83.98c0-6.72,5.28-12,11.99-12s12,5.28,12,12-5.28,12-12,12-11.99-5.28-11.99-12ZM1247.29,227.95c0-6.72,5.28-12,11.99-12s12,5.28,12,12-5.28,12-12,12-11.99-5.28-11.99-12Z"/>
    <path class="cls-1" d="M1320.09,47.99c-4.81,0-9.09-1.04-12.84-3.13-3.75-2.08-6.7-4.94-8.84-8.56-2.15-3.62-3.22-7.74-3.22-12.36s1.07-8.72,3.22-12.31c2.15-3.59,5.09-6.43,8.84-8.51,3.75-2.08,8.03-3.13,12.84-3.13s9.08,1.04,12.83,3.13c3.75,2.08,6.7,4.92,8.84,8.51,2.15,3.59,3.22,7.69,3.22,12.31s-1.07,8.65-3.22,12.31c-2.15,3.65-5.09,6.52-8.84,8.61-3.75,2.08-8.03,3.13-12.83,3.13ZM1320.09,43.18c3.65,0,6.92-.83,9.81-2.5,2.88-1.67,5.16-3.94,6.83-6.83,1.67-2.88,2.5-6.19,2.5-9.91s-.83-6.91-2.5-9.76c-1.67-2.85-3.94-5.13-6.83-6.83-2.88-1.7-6.15-2.55-9.81-2.55s-6.92.85-9.81,2.55c-2.88,1.7-5.16,3.99-6.83,6.88-1.67,2.88-2.5,6.12-2.5,9.71s.83,7.04,2.5,9.95c1.67,2.92,3.94,5.19,6.83,6.83,2.88,1.63,6.15,2.45,9.81,2.45ZM1309.42,36.54V10.39h8.56v26.16h-8.56ZM1321.92,26.74h-6.25v-4.81h5.09c.96,0,1.68-.21,2.16-.63.48-.42.72-1.01.72-1.78,0-.7-.24-1.28-.72-1.73-.48-.45-1.17-.67-2.07-.67h-5.19v-6.73h5.58c3.4,0,6.04.79,7.93,2.36,1.89,1.57,2.84,3.67,2.84,6.3s-.91,4.57-2.74,5.82c-1.83,1.25-4.28,1.88-7.36,1.88ZM1323.84,36.54l-1.15-6.44c-.13-.96-.37-1.59-.72-1.88-.35-.29-.95-.43-1.78-.43h-3.17v-5h4.61c2.82,0,4.97.43,6.44,1.3,1.47.87,2.4,2.23,2.79,4.09l2.02,8.37h-9.04Z"/>
  </g>
  <g>
    <path class="cls-2" d="M408.33,319.74h-12.49c-.95-3.25-2.61-5.73-5-7.44-2.39-1.71-5.27-2.57-8.63-2.57s-6.16.87-8.55,2.61c-2.39,1.74-4.22,4.22-5.49,7.44-1.27,3.22-1.9,7.07-1.9,11.56s.62,8.32,1.86,11.51c1.24,3.19,3.06,5.64,5.45,7.35,2.39,1.71,5.27,2.57,8.63,2.57,3.19,0,5.98-.81,8.37-2.44,2.39-1.62,4.09-4,5.09-7.13h12.58c-1.06,4.19-2.85,7.73-5.36,10.63-2.51,2.89-5.52,5.09-9.03,6.6-3.51,1.51-7.34,2.26-11.47,2.26-5.84,0-10.89-1.27-15.14-3.81-4.25-2.54-7.51-6.14-9.79-10.81-2.27-4.66-3.41-10.24-3.41-16.74s1.15-12.09,3.45-16.78,5.58-8.32,9.83-10.89c4.25-2.57,9.33-3.85,15.23-3.85,4.19,0,8.06.75,11.6,2.26s6.57,3.74,9.08,6.69c2.51,2.95,4.21,6.61,5.09,10.98Z"/>
    <path class="cls-2" d="M414.79,361.36v-63.76h11.34v63.76h-11.34Z"/>
    <path class="cls-2" d="M455.27,362.69c-4.72,0-8.78-1.01-12.18-3.01-3.4-2.01-6.01-4.88-7.84-8.63-1.83-3.75-2.75-8.19-2.75-13.33s.93-9.93,2.79-13.68c1.86-3.75,4.5-6.6,7.93-8.55,3.42-1.95,7.44-2.92,12.04-2.92s8.69,1.02,12.09,3.05c3.39,2.04,6.01,4.93,7.84,8.68,1.83,3.75,2.75,8.22,2.75,13.42s-.93,9.83-2.79,13.55c-1.86,3.72-4.49,6.55-7.88,8.5-3.4,1.95-7.4,2.92-12,2.92ZM455.27,353.3c3.54,0,6.26-1.34,8.15-4.03,1.89-2.69,2.83-6.54,2.83-11.56s-.95-8.97-2.83-11.69c-1.89-2.71-4.61-4.07-8.15-4.07s-6.35,1.34-8.24,4.03c-1.89,2.69-2.83,6.6-2.83,11.73s.94,8.8,2.83,11.51c1.89,2.72,4.63,4.07,8.24,4.07Z"/>
    <path class="cls-2" d="M493.88,326.65c0,1.59.53,2.81,1.59,3.63,1.06.83,2.49,1.46,4.29,1.9,1.8.44,3.76.83,5.89,1.15,2.13.32,4.25.75,6.38,1.28,2.13.53,4.07,1.27,5.84,2.21s3.2,2.24,4.29,3.9c1.09,1.65,1.64,3.87,1.64,6.64,0,3.01-.87,5.67-2.61,7.97-1.74,2.3-4.12,4.1-7.13,5.4-3.01,1.3-6.52,1.95-10.54,1.95-5.84,0-10.73-1.37-14.66-4.12-3.93-2.75-6.3-6.98-7.13-12.71h11.34c.41,2.54,1.58,4.52,3.5,5.93,1.92,1.42,4.35,2.13,7.31,2.13s4.96-.54,6.38-1.64,2.13-2.49,2.13-4.21c0-1.53-.53-2.71-1.59-3.54-1.06-.83-2.47-1.45-4.21-1.86-1.74-.41-3.66-.8-5.76-1.15-2.1-.35-4.18-.78-6.24-1.28-2.07-.5-3.97-1.24-5.71-2.21-1.74-.98-3.14-2.3-4.21-3.99-1.06-1.68-1.59-3.91-1.59-6.69,0-2.6.68-5,2.04-7.22,1.36-2.21,3.39-4.03,6.11-5.45,2.71-1.42,6.14-2.12,10.27-2.12,3.66,0,6.94.59,9.83,1.77,2.89,1.18,5.3,3.01,7.22,5.49,1.92,2.48,3.08,5.7,3.5,9.65h-11.34c-.47-2.89-1.52-4.96-3.14-6.2-1.62-1.24-3.79-1.86-6.51-1.86-2.24,0-4,.5-5.27,1.51-1.27,1.01-1.9,2.24-1.9,3.72Z"/>
    <path class="cls-2" d="M567.74,332.85l-6.55,4.61c0-5.02-.95-8.87-2.83-11.56-1.89-2.69-4.61-4.03-8.15-4.03s-6.35,1.36-8.24,4.07c-1.89,2.72-2.83,6.64-2.83,11.78s.99,8.89,2.97,11.6c1.98,2.72,4.83,4.07,8.55,4.07,2.66,0,4.88-.62,6.69-1.86,1.8-1.24,3.06-3.13,3.76-5.67h11.96c-1.3,5.49-3.94,9.67-7.93,12.53-3.98,2.86-8.81,4.29-14.48,4.29-4.72,0-8.83-1.01-12.31-3.01-3.48-2.01-6.15-4.88-8.01-8.63-1.86-3.75-2.79-8.19-2.79-13.33s.93-9.93,2.79-13.68c1.86-3.75,4.5-6.6,7.93-8.55,3.42-1.95,7.41-2.92,11.96-2.92s8.59,1,11.96,3.01,5.96,4.84,7.79,8.5c1.83,3.66,2.75,8.06,2.75,13.2v2.66h-40.47v-7.09h35.51Z"/>
    <path class="cls-2" d="M579.43,361.36v-47.47h11.34v47.47h-11.34ZM590.76,336.12h-3.54c.24-5.55,1.14-10.05,2.7-13.51,1.56-3.45,3.56-5.99,5.98-7.62,2.42-1.62,5.05-2.43,7.88-2.43.94,0,1.84.12,2.7.35.86.24,1.49.56,1.9.97v9.83c-.77-.23-1.56-.4-2.39-.49-.83-.09-1.77-.13-2.83-.13-2.13,0-3.97.31-5.53.93-1.56.62-2.85,1.51-3.85,2.66-1,1.15-1.76,2.51-2.26,4.07-.5,1.56-.75,3.35-.75,5.36Z"/>
    <path class="cls-2" d="M623.26,322.66v-8.77h27.45v8.77h-27.45ZM629.37,346.57v-43.57h11.34v42.6c0,2.48.5,4.37,1.51,5.67,1,1.3,3.07,1.95,6.2,1.95h2.13v8.32c-.59.35-1.51.63-2.75.84-1.24.21-2.63.31-4.16.31-4.84,0-8.43-1.36-10.76-4.07-2.33-2.71-3.5-6.73-3.5-12.04Z"/>
    <path class="cls-2" d="M655.59,361.36v-63.76h11.34v63.76h-11.34ZM666.92,333.82h-3.63c.29-4.78,1.21-8.74,2.75-11.87,1.53-3.13,3.59-5.48,6.16-7.04,2.57-1.56,5.5-2.35,8.81-2.35s5.98.63,8.37,1.9,4.25,3.17,5.58,5.71c1.33,2.54,1.99,5.73,1.99,9.56v31.62h-11.34v-29.31c0-2.18-.31-4.03-.93-5.53-.62-1.51-1.55-2.64-2.79-3.41-1.24-.77-2.83-1.15-4.78-1.15-1.54,0-2.94.31-4.21.93-1.27.62-2.35,1.48-3.23,2.57-.89,1.09-1.56,2.36-2.04,3.81-.47,1.45-.71,2.97-.71,4.56Z"/>
    <path class="cls-2" d="M736.35,332.49v7c-4.37,0-7.94.22-10.72.67-2.78.44-4.93,1.08-6.46,1.9-1.54.83-2.61,1.77-3.23,2.83-.62,1.06-.93,2.21-.93,3.45,0,1.83.68,3.28,2.04,4.34,1.36,1.06,3.16,1.59,5.4,1.59s4.4-.56,6.29-1.68c1.89-1.12,3.38-2.66,4.47-4.61,1.09-1.95,1.64-4.1,1.64-6.46h4.34c-.24,3.78-.96,7.01-2.17,9.7-1.21,2.69-2.75,4.87-4.61,6.55-1.86,1.68-3.91,2.92-6.15,3.72-2.24.8-4.49,1.2-6.73,1.2-3.13,0-5.89-.52-8.28-1.55-2.39-1.03-4.27-2.57-5.62-4.61-1.36-2.04-2.04-4.56-2.04-7.57,0-3.25.9-6.04,2.7-8.37,1.8-2.33,4.53-4.12,8.19-5.36,3.31-1.18,6.69-1.93,10.14-2.26,3.45-.32,7.36-.49,11.73-.49ZM716.61,329.48h-11.42c.53-3.54,1.7-6.57,3.5-9.08,1.8-2.51,4.19-4.44,7.17-5.8,2.98-1.36,6.48-2.04,10.49-2.04,4.37,0,8.04.8,11.03,2.39,2.98,1.59,5.21,3.81,6.69,6.64,1.48,2.83,2.21,6.08,2.21,9.74v18.42c0,2.89.13,5.24.4,7.04.27,1.8.6,3.32,1.02,4.56h-11.78c-.47-1.18-.77-2.67-.89-4.47-.12-1.8-.18-3.62-.18-5.45v-20.1c0-3.07-.75-5.4-2.26-7s-3.82-2.39-6.95-2.39c-2.72,0-4.81.69-6.29,2.08-1.48,1.39-2.39,3.2-2.75,5.45Z"/>
    <path class="cls-2" d="M755.31,361.36v-47.47h11.34v47.47h-11.34ZM766.64,333.82h-3.63c.29-4.78,1.21-8.74,2.75-11.87,1.53-3.13,3.59-5.48,6.16-7.04,2.57-1.56,5.5-2.35,8.81-2.35s5.98.63,8.37,1.9,4.25,3.17,5.58,5.71c1.33,2.54,1.99,5.73,1.99,9.56v31.62h-11.34v-29.31c0-2.18-.31-4.03-.93-5.53-.62-1.51-1.55-2.64-2.79-3.41-1.24-.77-2.83-1.15-4.78-1.15-1.54,0-2.94.31-4.21.93-1.27.62-2.35,1.48-3.23,2.57-.89,1.09-1.56,2.36-2.04,3.81-.47,1.45-.71,2.97-.71,4.56Z"/>
    <path class="cls-2" d="M858.57,332.85l-6.55,4.61c0-5.02-.95-8.87-2.83-11.56-1.89-2.69-4.61-4.03-8.15-4.03s-6.35,1.36-8.24,4.07c-1.89,2.72-2.83,6.64-2.83,11.78s.99,8.89,2.97,11.6c1.98,2.72,4.83,4.07,8.55,4.07,2.66,0,4.88-.62,6.69-1.86,1.8-1.24,3.06-3.13,3.76-5.67h11.96c-1.3,5.49-3.94,9.67-7.93,12.53-3.98,2.86-8.81,4.29-14.48,4.29-4.72,0-8.83-1.01-12.31-3.01-3.48-2.01-6.15-4.88-8.01-8.63-1.86-3.75-2.79-8.19-2.79-13.33s.93-9.93,2.79-13.68c1.86-3.75,4.5-6.6,7.93-8.55,3.42-1.95,7.41-2.92,11.96-2.92s8.59,1,11.96,3.01,5.96,4.84,7.79,8.5c1.83,3.66,2.75,8.06,2.75,13.2v2.66h-40.47v-7.09h35.51Z"/>
    <path class="cls-2" d="M881.15,361.36l-17.09-47.47h12.22l10.98,33.48,2.04,8.59h-1.59l1.95-8.59,10.98-33.48h11.6l-17.09,47.47h-13.99Z"/>
    <path class="cls-2" d="M953.41,332.85l-6.55,4.61c0-5.02-.95-8.87-2.83-11.56-1.89-2.69-4.61-4.03-8.15-4.03s-6.35,1.36-8.24,4.07c-1.89,2.72-2.83,6.64-2.83,11.78s.99,8.89,2.97,11.6c1.98,2.72,4.83,4.07,8.55,4.07,2.66,0,4.88-.62,6.69-1.86,1.8-1.24,3.06-3.13,3.76-5.67h11.96c-1.3,5.49-3.94,9.67-7.93,12.53-3.98,2.86-8.81,4.29-14.48,4.29-4.72,0-8.83-1.01-12.31-3.01-3.48-2.01-6.15-4.88-8.01-8.63-1.86-3.75-2.79-8.19-2.79-13.33s.93-9.93,2.79-13.68c1.86-3.75,4.5-6.6,7.93-8.55,3.42-1.95,7.41-2.92,11.96-2.92s8.59,1,11.96,3.01,5.96,4.84,7.79,8.5c1.83,3.66,2.75,8.06,2.75,13.2v2.66h-40.47v-7.09h35.51Z"/>
    <path class="cls-2" d="M965.1,361.36v-47.47h11.34v47.47h-11.34ZM976.44,336.12h-3.54c.24-5.55,1.14-10.05,2.7-13.51,1.56-3.45,3.56-5.99,5.98-7.62,2.42-1.62,5.05-2.43,7.88-2.43.94,0,1.84.12,2.7.35.86.24,1.49.56,1.9.97v9.83c-.77-.23-1.56-.4-2.39-.49-.83-.09-1.77-.13-2.83-.13-2.13,0-3.97.31-5.53.93-1.56.62-2.85,1.51-3.85,2.66-1,1.15-1.76,2.51-2.26,4.07-.5,1.56-.75,3.35-.75,5.36Z"/>
  </g>
  <path class="cls-2" d="M994.06,361.36v-12.49h12.49v12.49h-12.49Z"/>
</svg>